<svg xmlns="http://www.w3.org/2000/svg" width="36.236" height="24.989" viewBox="0 0 36.236 24.989"><g transform="translate(0 -79.451)"><path d="M36.236,102.3a2.142,2.142,0,0,1-2.142,2.142H2.142A2.142,2.142,0,0,1,0,102.3V81.593a2.142,2.142,0,0,1,2.142-2.142H34.094a2.142,2.142,0,0,1,2.142,2.142V102.3Z" transform="translate(0 0)" fill="#fff"/><path d="M1.523,102.3V81.593a2.142,2.142,0,0,1,2.142-2.142H2.142A2.142,2.142,0,0,0,0,81.593V102.3a2.142,2.142,0,0,0,2.142,2.142H3.665A2.142,2.142,0,0,1,1.523,102.3Z" transform="translate(0 0)" fill="#202121" opacity="0.15"/><g transform="translate(2.601 86.793)"><path d="M74.59,202.656h1.083l-.541-1.378Z" transform="translate(-71.912 -199.998)" fill="#3b3b3b"/><path d="M155.946,286.107v.64h1.821v.689h-1.821v.738h2.018l.935-1.034-.886-1.034Z" transform="translate(-147.51 -278.824)" fill="#3b3b3b"/><path d="M349.144,201.278l-.591,1.378h1.132Z" transform="translate(-326.486 -199.998)" fill="#3b3b3b"/><path d="M213.548,284.046v-2.805l-1.28,1.378Z" transform="translate(-199.846 -274.302)" fill="#3b3b3b"/><path d="M243.742,286.55a.5.5,0,0,0-.542-.443h-1.033v.886h1.083C243.545,286.993,243.742,286.845,243.742,286.55Z" transform="translate(-227.629 -278.824)" fill="#3b3b3b"/><path d="M295,287.543a.384.384,0,0,0,.148-.344.274.274,0,0,0-.148-.345.957.957,0,0,0-.393-.049h-.984v.787h.984A.958.958,0,0,0,295,287.543Z" transform="translate(-275.441 -279.472)" fill="#3b3b3b"/><path d="M63.392,183.2v.591l-.3-.591H60.784v.591l-.3-.591h-3.15a3,3,0,0,0-1.378.3v-.3H53.747v.3a1.419,1.419,0,0,0-.935-.3H44.889l-.542,1.23-.541-1.23H41.3v.591l-.246-.591H38.885l-.984,2.313-1.132,2.51-.021.049H39.31l.018-.049.3-.738h.64l.3.787h2.854v-.591l.246.59h1.427l.246-.59v.591h6.84v-1.28h.1c.1,0,.1,0,.1.148v1.083h3.543v-.3a2.944,2.944,0,0,0,1.328.3h1.477l.3-.787H59.7l.3.787H62.85v-.738l.443.738h2.313V183.2H63.392Zm-16.682,4.134h-.787v-2.707l-.049.113h0l-1.145,2.6H44l-1.181-2.707v2.707H41.149l-.344-.738H39.131l-.345.738h-.865l1.456-3.445h1.23l1.378,3.3v-3.3h1.3l.023.049h0l.621,1.351.446,1.012.016-.051.984-2.362h1.329v3.445Zm3.4-2.707H48.186v.64h1.87v.689h-1.87v.689h1.919v.738H47.349v-3.494h2.756v.738Zm3.51,1.269,0,0a.565.565,0,0,1,.048.058.946.946,0,0,1,.174.577v.014s0,.005,0,.008,0,0,0,0c0,.027,0,.055,0,.085v.689h-.738v-.394a1.171,1.171,0,0,0-.148-.689.448.448,0,0,0-.145-.1.983.983,0,0,0-.446-.049h-.886v1.23h-.836v-3.445h1.87a1.887,1.887,0,0,1,.984.148.831.831,0,0,1,.392.765.978.978,0,0,1-.589.908A.659.659,0,0,1,53.615,185.894Zm1.657,1.438h-.837v-3.445h.837Zm9.6,0H63.786l-1.575-2.608v2.165l-.005-.005v.45h-.831v0h-.837l-.3-.738H58.52l-.3.787H57.29a1.479,1.479,0,0,1-1.624-1.722,2.018,2.018,0,0,1,.443-1.378,1.55,1.55,0,0,1,1.23-.394h.788v.738h-.788a.907.907,0,0,0-.64.2,1.156,1.156,0,0,0-.246.787,1.071,1.071,0,0,0,.246.837.785.785,0,0,0,.591.2h.344l1.132-2.707H60l1.378,3.3v-3.3H62.6l1.427,2.411v-2.411h.837v3.4h0Z" transform="translate(-36.748 -183.198)" fill="#3b3b3b"/><path d="M246.376,204.061a.265.265,0,0,0,.038-.053.532.532,0,0,0,.068-.371.276.276,0,0,0-.007-.045s0-.007,0-.011h0a.276.276,0,0,0-.149-.168.964.964,0,0,0-.394-.049h-.984v.787h.984a.958.958,0,0,0,.394-.049.185.185,0,0,0,.041-.029h0Z" transform="translate(-230.21 -201.937)" fill="#3b3b3b"/><path d="M157.857,267.849a1.886,1.886,0,0,0-.246-.935V264.7h0v-.148h-2.37a1.4,1.4,0,0,0-.679.3v-.3H152.3a1.563,1.563,0,0,0-.984.3v-.3h-4.035v.3a1.9,1.9,0,0,0-1.083-.3h-2.657v.3a1.87,1.87,0,0,0-1.132-.3h-2.952l-.689.738-.64-.738h-4.429v4.971h4.331l.712-.712.617.712h2.756v-1.132h.246a2.99,2.99,0,0,0,1.132-.148v1.329H145.7v-1.28h.1c.148,0,.148,0,.148.148v1.132h6.692a1.929,1.929,0,0,0,1.132-.3v.3h2.116a2.21,2.21,0,0,0,1.181-.246,1.653,1.653,0,0,0,.781-1.327c0-.017,0-.034.006-.051l0,0C157.856,267.913,157.857,267.882,157.857,267.849Zm-15.5-.3h-.984v1.279h-1.618l-.941-1.083,0,0-.046-.053-1.083,1.132h-3.149v-3.445h3.2l.874.957.184.2.025-.026,1.034-1.132h2.608a1.277,1.277,0,0,1,1.288.64,1.392,1.392,0,0,1,.041.344C143.783,267.357,143.094,267.554,142.356,267.554Zm4.921-.049a1.117,1.117,0,0,1,.148.64v.689h-.836v-.443a1.1,1.1,0,0,0-.148-.689c-.1-.147-.3-.147-.59-.147h-.886v1.279h-.837V265.34H146a1.985,1.985,0,0,1,.984.147.871.871,0,0,1,.443.788.98.98,0,0,1-.59.935A.839.839,0,0,1,147.277,267.5Zm3.4-1.427h-1.919v.64h1.87v.689h-1.87v.689h1.919v.738h-2.756V265.34h2.756Zm2.067,2.756h-1.575V268.1h1.575a.416.416,0,0,0,.345-.1.357.357,0,0,0,0-.492.418.418,0,0,0-.3-.1c-.787-.049-1.722,0-1.722-1.083,0-.492.3-1.034,1.181-1.034h1.624v.837h-1.525a.731.731,0,0,0-.345.049c-.1.049-.1.148-.1.246,0,.148.1.2.2.246a.623.623,0,0,0,.3.049h.443a1.252,1.252,0,0,1,.935.3,1.019,1.019,0,0,1,.246.738C154.019,268.489,153.576,268.834,152.74,268.834Zm4.232-.345a1.434,1.434,0,0,1-1.034.345h-1.574V268.1h1.574a.415.415,0,0,0,.345-.1.357.357,0,0,0,0-.492.416.416,0,0,0-.3-.1c-.787-.049-1.722,0-1.722-1.082a1.006,1.006,0,0,1,.928-1.016,1.834,1.834,0,0,1,.254-.018h1.624v.837h-1.526a.728.728,0,0,0-.344.049.375.375,0,0,0-.1.246c0,.148.049.2.2.246a.622.622,0,0,0,.3.049h.443a1.538,1.538,0,0,1,.527.079,1.06,1.06,0,0,1,.688.778,1.106,1.106,0,0,1,.015.177A1,1,0,0,1,156.972,268.489Z" transform="translate(-126.834 -258.794)" fill="#3b3b3b"/></g></g></svg>