<svg xmlns="http://www.w3.org/2000/svg" width="58.16" height="25" viewBox="0 0 58.16 25"><path d="M0,4.484A4.5,4.5,0,0,1,4.51,0H53.65a4.5,4.5,0,0,1,4.51,4.484V20.516A4.5,4.5,0,0,1,53.65,25H4.51A4.49,4.49,0,0,1,0,20.523Z" fill="#fff"/><path d="M28.2,30.784V46.4A2.793,2.793,0,0,0,31,49.187H56.633V28H31A2.793,2.793,0,0,0,28.2,30.784Zm35.061,7.732c0,1-.49,1.675-1.307,1.675a1.466,1.466,0,0,1-1.32-1.6c0-.932.529-1.63,1.32-1.63A1.392,1.392,0,0,1,63.261,38.515Zm-4.8,5.7h2.164V40.83h.026a2.177,2.177,0,0,0,1.98,1.017c1.863,0,2.856-1.532,2.856-3.377a2.91,2.91,0,0,0-2.68-3.149,2.478,2.478,0,0,0-2.333,1.271H60.45V35.464H58.456v8.755Zm9.981-4.5c0-.6.575-.828,1.307-.828.327,0,.634.02.915.033A1.407,1.407,0,0,1,69.333,40.4C68.83,40.406,68.444,40.158,68.444,39.721ZM72.81,41.7a7.469,7.469,0,0,1-.118-1.473V37.9c0-1.9-1.379-2.588-2.981-2.588a6.446,6.446,0,0,0-2.5.443l.039,1.46a4.033,4.033,0,0,1,1.994-.469c.778,0,1.418.228,1.431,1.082a6.6,6.6,0,0,0-1.007-.085c-1.15,0-3.229.228-3.229,2.132,0,1.356,1.1,1.962,2.34,1.962a2.138,2.138,0,0,0,1.98-1.128h.026c0,.326.033.645.046.984H72.81Zm.967,2.516a6.216,6.216,0,0,0,1.346.143c1.98,0,2.451-1.525,3.066-3.09l2.294-5.808H78.32l-1.288,4.074h-.02l-1.346-4.074H73.34l2.536,6.389a1.092,1.092,0,0,1-1.092.861,2.759,2.759,0,0,1-.856-.13l-.15,1.636Z" transform="translate(-26.273 -26.087)" fill="#d3d3d3"/><path d="M77.23,108.445c0-.9.437-1.633,1.285-1.633a1.427,1.427,0,0,1,1.442,1.544,1.527,1.527,0,0,1-1.442,1.681C77.832,110.037,77.23,109.463,77.23,108.445Zm4.913-3.219h-2.05v1.182h-.02a2.552,2.552,0,0,0-2.221-1.333c-2.036,0-2.952,1.456-2.952,3.4s1.121,3.294,2.911,3.294a2.552,2.552,0,0,0,2.2-1.121h.027v.355c0,1.278-.7,1.893-2.009,1.893a4.479,4.479,0,0,1-2.214-.54l-.116,1.784a7.538,7.538,0,0,0,2.5.417c2.638,0,3.943-.868,3.943-3.553Zm3.82-2.727H83.7v1.661h2.262ZM83.7,111.773h2.262v-6.546H83.7Zm8.555-6.622a5.281,5.281,0,0,0-.765-.075,2.018,2.018,0,0,0-1.934,1.36H89.53v-1.2H87.473v6.546h2.262v-2.761c0-1.285.595-2.05,1.647-2.05a2.6,2.6,0,0,1,.765.075l.109-1.893Zm3.9,5.187c-1.046,0-1.469-.868-1.469-1.831s.424-1.845,1.469-1.845,1.469.868,1.469,1.845S97.19,110.338,96.152,110.338Zm0,1.585c2.159,0,3.806-1.257,3.806-3.417s-1.647-3.43-3.806-3.43-3.806,1.257-3.806,3.43S93.986,111.923,96.152,111.923Z" transform="translate(-69.782 -96.008)" fill="#3b3b3b"/></svg>