<svg xmlns="http://www.w3.org/2000/svg" width="14.997" height="15" viewBox="0 0 14.997 15"><g transform="translate(-0.013)"><g transform="translate(0.013)"><g transform="translate(0 0)"><path d="M14.972,4.41a5.481,5.481,0,0,0-.349-1.82A3.842,3.842,0,0,0,12.428.4a5.5,5.5,0,0,0-1.82-.349C9.806.009,9.551,0,7.514,0S5.223.009,4.423.044A5.483,5.483,0,0,0,2.6.393a3.66,3.66,0,0,0-1.33.867A3.693,3.693,0,0,0,.409,2.587,5.5,5.5,0,0,0,.06,4.407C.022,5.21.013,5.465.013,7.5s.009,2.291.044,3.091a5.481,5.481,0,0,0,.349,1.82A3.842,3.842,0,0,0,2.6,14.607a5.5,5.5,0,0,0,1.82.349c.8.035,1.055.044,3.091.044s2.291-.009,3.091-.044a5.48,5.48,0,0,0,1.82-.349,3.837,3.837,0,0,0,2.195-2.195,5.5,5.5,0,0,0,.349-1.82c.035-.8.044-1.055.044-3.091S15.007,5.21,14.972,4.41Zm-1.351,6.124a4.111,4.111,0,0,1-.258,1.392,2.488,2.488,0,0,1-1.424,1.424,4.126,4.126,0,0,1-1.392.258c-.791.035-1.028.044-3.03.044s-2.242-.009-3.03-.044A4.109,4.109,0,0,1,3.1,13.35a2.308,2.308,0,0,1-.861-.56,2.332,2.332,0,0,1-.56-.861,4.127,4.127,0,0,1-.258-1.392c-.035-.791-.044-1.029-.044-3.03s.009-2.242.044-3.03a4.109,4.109,0,0,1,.258-1.392,2.28,2.28,0,0,1,.563-.862,2.328,2.328,0,0,1,.861-.56A4.129,4.129,0,0,1,4.49,1.407c.791-.035,1.029-.044,3.03-.044s2.242.009,3.03.044a4.111,4.111,0,0,1,1.392.258,2.306,2.306,0,0,1,.861.56,2.332,2.332,0,0,1,.56.862,4.128,4.128,0,0,1,.258,1.392c.035.791.044,1.028.044,3.03S13.656,9.743,13.621,10.534Z" transform="translate(-0.013 0)" fill="#fff"/><path d="M7.514,3.586A3.916,3.916,0,1,0,11.43,7.5,3.917,3.917,0,0,0,7.514,3.586Zm0,6.456a2.54,2.54,0,1,1,2.54-2.54,2.541,2.541,0,0,1-2.54,2.54Z" transform="translate(-0.013 0)" fill="#fff"/><path d="M12.207,3.436a.884.884,0,1,1-.884-.884.884.884,0,0,1,.884.884Z" transform="translate(0.194 0.051)" fill="#fff"/></g></g></g></svg>