<svg xmlns="http://www.w3.org/2000/svg" width="43.997" height="25.001" viewBox="0 0 43.997 25.001"><g transform="translate(0 -100.8)"><path d="M228,113.3c0,6.878-5.866,12.5-13.2,12.5-7.263,0-13.2-5.622-13.2-12.5h0c0-6.878,5.866-12.5,13.129-12.5,7.4,0,13.269,5.622,13.269,12.5Z" transform="translate(-184.001 0)" fill="#fff"/><path d="M214.8,100.8c7.263,0,13.2,5.622,13.2,12.5h0c0,6.878-5.866,12.5-13.2,12.5-7.263,0-13.2-5.622-13.2-12.5" transform="translate(-184.001)" fill="#fff"/><path d="M352.8,100.8c7.263,0,13.2,5.622,13.2,12.5h0c0,6.878-5.866,12.5-13.2,12.5" transform="translate(-322.002)" fill="#fff"/><path d="M13.059,100.8C5.866,100.866,0,106.422,0,113.3s5.866,12.5,13.2,12.5a13.779,13.779,0,0,0,8.869-3.241h0a12.187,12.187,0,0,0,1.327-1.323H20.672a15.333,15.333,0,0,1-.978-1.257h4.679a8.349,8.349,0,0,0,.768-1.323H18.926a7.645,7.645,0,0,1-.559-1.323H25.63a12.5,12.5,0,0,0,.7-3.968,16.2,16.2,0,0,0-.279-2.646h-8.1A9.251,9.251,0,0,1,18.3,109.4H25.56A7.645,7.645,0,0,0,25,108.075H18.856a12.923,12.923,0,0,1,.768-1.323H24.3a6.33,6.33,0,0,0-1.048-1.323H20.672A11.61,11.61,0,0,1,22,104.173a13.3,13.3,0,0,0-8.869-3.241C13.129,100.8,13.129,100.8,13.059,100.8Z" transform="translate(0)" fill="#d3d3d3"/><path d="M0,114.764c0,6.876,5.866,12.5,13.2,12.5a13.781,13.781,0,0,0,8.869-3.24h0A12.186,12.186,0,0,0,23.4,122.7H20.672a15.332,15.332,0,0,1-.978-1.256h4.679a8.346,8.346,0,0,0,.768-1.322H18.926a7.642,7.642,0,0,1-.559-1.322H25.63a12.5,12.5,0,0,0,.7-3.967,16.189,16.189,0,0,0-.279-2.645h-8.1a9.246,9.246,0,0,1,.349-1.322H25.56A7.642,7.642,0,0,0,25,109.541H18.856a12.919,12.919,0,0,1,.768-1.322H24.3a6.329,6.329,0,0,0-1.048-1.322H20.672A11.609,11.609,0,0,1,22,105.64a13.3,13.3,0,0,0-8.869-3.24h-.07" transform="translate(0 -1.46)" fill="#d3d3d3"/><path d="M149.74,127.26a13.781,13.781,0,0,0,8.869-3.24h0a12.186,12.186,0,0,0,1.327-1.322h-2.724a15.331,15.331,0,0,1-.978-1.256h4.679a8.344,8.344,0,0,0,.768-1.322h-6.215a7.643,7.643,0,0,1-.559-1.322h7.263a12.5,12.5,0,0,0,.7-3.967,16.19,16.19,0,0,0-.279-2.645h-8.1a9.243,9.243,0,0,1,.349-1.322H162.1a7.643,7.643,0,0,0-.559-1.322H155.4a12.921,12.921,0,0,1,.768-1.322h4.679A6.329,6.329,0,0,0,159.8,106.9h-2.584a11.608,11.608,0,0,1,1.327-1.256,13.3,13.3,0,0,0-8.869-3.24h-.07" transform="translate(-136.541 -1.46)" fill="#d3d3d3"/><g transform="translate(1.257 109.873)"><path d="M183.625,226.146l.21-1.187a3.024,3.024,0,0,1-.349.07c-.489,0-.559-.279-.489-.419l.419-2.444h.768l.21-1.327h-.7l.14-.838h-1.4s-.838,4.609-.838,5.168a1.048,1.048,0,0,0,1.117,1.187A2.144,2.144,0,0,0,183.625,226.146Z" transform="translate(-167.004 -219.371)" fill="#383838"/><path d="M210.4,231.85a2.221,2.221,0,0,0,2.444,2.444,3.626,3.626,0,0,0,1.467-.21l.279-1.327a4.187,4.187,0,0,1-1.467.349c-1.536,0-1.257-1.117-1.257-1.117h2.863a9.055,9.055,0,0,0,.21-1.257,1.892,1.892,0,0,0-2.025-2.025C211.448,228.568,210.4,230.1,210.4,231.85Zm2.444-2.025c.768,0,.629.908.629.978h-1.536C211.936,230.733,212.076,229.825,212.844,229.825Z" transform="translate(-193.29 -227.311)" fill="#383838"/><path d="M299.841,219.574l.279-1.536a3.432,3.432,0,0,1-1.187.349c-.978,0-1.4-.768-1.4-1.606,0-1.676.838-2.584,1.816-2.584a2.332,2.332,0,0,1,1.257.419l.21-1.467a4.91,4.91,0,0,0-1.606-.349c-1.606,0-3.212,1.4-3.212,4.051,0,1.746.838,2.933,2.514,2.933A6.268,6.268,0,0,0,299.841,219.574Z" transform="translate(-271.418 -212.8)" fill="#383838"/><path d="M89.054,227.2a4.946,4.946,0,0,0-1.676.279l-.21,1.187a4.128,4.128,0,0,1,1.536-.279c.489,0,.908.07.908.489,0,.279-.07.349-.07.349h-.629c-1.187,0-2.514.489-2.514,2.1,0,1.257.838,1.536,1.327,1.536a2.1,2.1,0,0,0,1.467-.629l-.07.559h1.257l.559-3.841A1.655,1.655,0,0,0,89.054,227.2Zm.279,3.143c0,.21-.14,1.327-.978,1.327a.545.545,0,0,1-.559-.559c0-.349.21-.838,1.257-.838A1.1,1.1,0,0,0,89.333,230.343Z" transform="translate(-80.115 -225.943)" fill="#383838"/><path d="M136.806,232.127a1.79,1.79,0,0,0,2.1-1.816c0-1.746-1.676-1.4-1.676-2.1,0-.349.279-.489.768-.489.21,0,.978.07.978.07l.21-1.257a5.305,5.305,0,0,0-1.327-.14c-1.048,0-2.1.419-2.1,1.816,0,1.606,1.746,1.467,1.746,2.1,0,.419-.489.489-.838.489a4.567,4.567,0,0,1-1.257-.21l-.21,1.257C135.27,231.987,135.619,232.127,136.806,232.127Z" transform="translate(-124.655 -225.213)" fill="#383838"/><path d="M431.181,214.4l-.279,1.886a1.936,1.936,0,0,0-1.327-.7c-1.257,0-2.374,1.536-2.374,3.352,0,1.117.559,2.3,1.746,2.3a1.864,1.864,0,0,0,1.327-.559l-.07.489h1.4l1.048-6.7Zm-.629,3.7c0,.768-.349,1.746-1.117,1.746-.489,0-.768-.419-.768-1.117,0-1.117.489-1.816,1.117-1.816C430.273,216.914,430.552,217.263,430.552,218.1Z" transform="translate(-391.164 -214.26)" fill="#383838"/><path d="M15.727,221.1l.838-5.028.14,5.028h.978l1.816-5.028L18.73,221.1H20.2l1.117-6.7h-2.3l-1.4,4.12-.07-4.12H15.517L14.4,221.1Z" transform="translate(-14.4 -214.26)" fill="#383838"/><path d="M261.536,234.247c.419-2.3.489-4.19,1.467-3.841a5.481,5.481,0,0,1,.489-1.606h-.279c-.629,0-1.117.838-1.117.838l.14-.768h-1.327L260,234.317h1.536Z" transform="translate(-238.56 -227.403)" fill="#383838"/><path d="M349.054,227.2a4.946,4.946,0,0,0-1.676.279l-.21,1.187a4.128,4.128,0,0,1,1.536-.279c.489,0,.908.07.908.489,0,.279-.07.349-.07.349h-.629c-1.187,0-2.514.489-2.514,2.1,0,1.257.838,1.536,1.327,1.536a2.1,2.1,0,0,0,1.467-.629l-.07.559h1.257l.559-3.841A1.631,1.631,0,0,0,349.054,227.2Zm.349,3.143c0,.21-.14,1.327-.978,1.327a.545.545,0,0,1-.559-.559c0-.349.21-.838,1.257-.838C349.333,230.343,349.333,230.343,349.4,230.343Z" transform="translate(-317.418 -225.943)" fill="#383838"/><path d="M395.936,234.247c.419-2.3.489-4.19,1.467-3.841a5.481,5.481,0,0,1,.489-1.606h-.279c-.629,0-1.117.838-1.117.838l.14-.768h-1.327l-.908,5.447h1.536Z" transform="translate(-361.228 -227.403)" fill="#383838"/></g><g transform="translate(1.257 109.873)"><path d="M180,225.168a1.048,1.048,0,0,0,1.117,1.187,2.658,2.658,0,0,0,1.048-.21l.21-1.187a3.024,3.024,0,0,1-.349.07c-.489,0-.559-.279-.489-.419l.419-2.444h.768l.21-1.327h-.7l.14-.838" transform="translate(-165.544 -219.371)" fill="#3b3b3b"/><path d="M218.4,231.85c0,1.955.629,2.444,1.746,2.444a3.626,3.626,0,0,0,1.467-.21l.279-1.327a4.187,4.187,0,0,1-1.467.349c-1.536,0-1.257-1.117-1.257-1.117h2.863a9.055,9.055,0,0,0,.21-1.257,1.892,1.892,0,0,0-2.025-2.025C218.749,228.568,218.4,230.1,218.4,231.85Zm1.746-2.025c.768,0,.908.908.908.978h-1.816C219.238,230.733,219.378,229.825,220.146,229.825Z" transform="translate(-200.592 -227.311)" fill="#3b3b3b"/><path d="M307.143,219.574l.279-1.536a3.432,3.432,0,0,1-1.187.349c-.978,0-1.4-.768-1.4-1.606,0-1.676.838-2.584,1.816-2.584a2.332,2.332,0,0,1,1.257.419l.21-1.467a4.91,4.91,0,0,0-1.606-.349c-1.606,0-2.514,1.4-2.514,4.051,0,1.746.14,2.933,1.816,2.933A6.268,6.268,0,0,0,307.143,219.574Z" transform="translate(-278.719 -212.8)" fill="#3b3b3b"/><path d="M87.168,230.2a4.128,4.128,0,0,1,1.536-.279c.489,0,.908.07.908.489,0,.279-.07.349-.07.349h-.629c-1.187,0-2.514.489-2.514,2.1,0,1.257.838,1.536,1.327,1.536a2.1,2.1,0,0,0,1.467-.629l-.07.559h1.257l.559-3.841c0-1.606-1.4-1.676-1.955-1.676m1.048,3a2.286,2.286,0,0,1-1.676,1.327.545.545,0,0,1-.559-.559c0-.349.21-.838,1.257-.838A5.705,5.705,0,0,0,90.032,231.8Z" transform="translate(-80.115 -227.403)" fill="#3b3b3b"/><path d="M136,231.987a5.911,5.911,0,0,0,1.606.14,1.79,1.79,0,0,0,2.1-1.816c0-1.746-1.676-1.4-1.676-2.1,0-.349.279-.489.768-.489.21,0,.978.07.978.07l.21-1.257a5.305,5.305,0,0,0-1.327-.14c-1.048,0-1.4.419-1.4,1.816,0,1.606,1.048,1.467,1.048,2.1,0,.419-.489.489-.838.489" transform="translate(-125.385 -225.213)" fill="#3b3b3b"/><path d="M438.15,217.016a1.936,1.936,0,0,0-1.327-.7c-1.257,0-1.676,1.536-1.676,3.352,0,1.117-.14,2.3,1.048,2.3a1.864,1.864,0,0,0,1.327-.559l-.07.489h1.4l1.048-6.7m-1.816,3.632c0,.768-.629,1.746-1.4,1.746-.489,0-.768-.419-.768-1.117,0-1.117.489-1.816,1.117-1.816A1.067,1.067,0,0,1,438.08,218.832Z" transform="translate(-398.413 -214.99)" fill="#3b3b3b"/><path d="M15.727,221.1l.838-5.028.14,5.028h.978l1.816-5.028L18.73,221.1H20.2l1.117-6.7H19.568l-1.955,4.12-.07-4.12h-.768L14.4,221.1Z" transform="translate(-14.4 -214.26)" fill="#3b3b3b"/><path d="M260.8,234.247h1.467c.419-2.3.489-4.19,1.467-3.841a5.481,5.481,0,0,1,.489-1.606h-.279c-.629,0-1.117.838-1.117.838l.14-.768" transform="translate(-239.29 -227.403)" fill="#3b3b3b"/><path d="M347.168,230.2a4.128,4.128,0,0,1,1.536-.279c.489,0,.908.07.908.489,0,.279-.07.349-.07.349h-.629c-1.187,0-2.514.489-2.514,2.1,0,1.257.838,1.536,1.327,1.536a2.1,2.1,0,0,0,1.467-.629l-.07.559h1.257l.559-3.841c0-1.606-1.4-1.676-1.955-1.676m1.048,3a2.286,2.286,0,0,1-1.676,1.327.545.545,0,0,1-.559-.559c0-.349.21-.838,1.257-.838A6.144,6.144,0,0,0,350.032,231.8Z" transform="translate(-317.418 -227.403)" fill="#3b3b3b"/><path d="M395.2,234.247h1.467c.419-2.3.489-4.19,1.467-3.841a5.481,5.481,0,0,1,.489-1.606h-.279c-.629,0-1.117.838-1.117.838l.14-.768" transform="translate(-361.958 -227.403)" fill="#3b3b3b"/></g></g></svg>