<svg xmlns="http://www.w3.org/2000/svg" width="94.186" height="25.497" viewBox="0 0 94.186 25.497"><g transform="translate(0 -18.381)"><g transform="translate(0 19.965)"><path d="M16.881,21.8a3.818,3.818,0,0,0-1.4-1.512,6.564,6.564,0,0,0-2.229-.818,18.218,18.218,0,0,0-3.029-.239l-5.357,0a1.342,1.342,0,0,0-1.233.979l-3.6,15.7a.759.759,0,0,0,.775.975H3.369A1.313,1.313,0,0,0,4.6,35.911L5.48,32.1a1.314,1.314,0,0,1,1.229-.973h.734c3.137,0,5.566-.645,7.311-1.928a6.005,6.005,0,0,0,2.62-5.088A4.772,4.772,0,0,0,16.881,21.8Zm-5.532,5.129a5.4,5.4,0,0,1-3.244.852H7.477A.764.764,0,0,1,6.7,26.8l.772-3.333a1.3,1.3,0,0,1,1.222-.973l.841-.006a4.105,4.105,0,0,1,2.231.5,1.7,1.7,0,0,1,.74,1.528A2.777,2.777,0,0,1,11.349,26.927Z" transform="translate(0 -19.229)" fill="#fff"/></g><g transform="translate(88.462 18.381)"><path d="M48.9,21.195l-.161.049-.215.03-.263-.041-.135-.131-.062-.206,0-.308V19.446h.858v-.353h-.858v-.712h-.424v.712h-.288v.353h.288v1.328l.2.658.583.209.245-.021.26-.05v-.376Z" transform="translate(-47.345 -18.381)" fill="#fff"/></g><g transform="translate(90.538 19.022)"><path d="M51.909,18.976l-.613-.252-.452.092-.46.31-.267-.3-.433-.1-.417.092-.394.254v-.277h-.417v2.494h.415V19.427l.349-.217.348-.086.284.05.14.144.062.239.021.308v1.426h.417V19.7l-.007-.133-.007-.121.355-.226.351-.088.275.05.149.144.052.241.028.3v1.426h.419v-1.62Z" transform="translate(-48.456 -18.724)" fill="#fff"/></g><g transform="translate(15.951 23.96)"><path d="M21.839,22.185a9.736,9.736,0,0,0-4.585-.818,20.264,20.264,0,0,0-3.1.241c-.768.118-.843.14-1.315.243a1.5,1.5,0,0,0-1.129,1.186l-.314,1.291c-.178.824.3.792.5.723a13.331,13.331,0,0,1,1.534-.452,11,11,0,0,1,2.4-.321,6.333,6.333,0,0,1,2.334.329,1.179,1.179,0,0,1,.774,1.166l-.045.362-.37.228c-1.456.092-2.507.226-3.784.411a11.735,11.735,0,0,0-3.253.895,5.057,5.057,0,0,0-2.209,1.741,4.746,4.746,0,0,0-.734,2.683A3.17,3.17,0,0,0,9.581,34.53a3.922,3.922,0,0,0,2.7.923A7.376,7.376,0,0,0,13.9,35.3l1.243-.428,1.052-.583.968-.639.013.019-.1.411-.006.017v0a.763.763,0,0,0,.686.96l.009.011h2.382l.034-.015a1.327,1.327,0,0,0,1.1-.96l1.87-8.1.1-.66.045-.618A2.707,2.707,0,0,0,21.839,22.185Zm-4.137,9.1-.4.527-1.009.521a3.593,3.593,0,0,1-1.342.29,3.078,3.078,0,0,1-1.461-.278l-.5-.962a1.923,1.923,0,0,1,.376-1.252l1.087-.74a9.4,9.4,0,0,1,1.691-.381c.587-.073,1.745-.206,1.9-.209l.178.312C18.188,29.293,17.859,30.668,17.7,31.288Z" transform="translate(-8.537 -21.367)" fill="#fff"/></g><g transform="translate(62.546 23.97)"><path d="M46.777,22.192a9.755,9.755,0,0,0-4.583-.82,19.532,19.532,0,0,0-3.1.247c-.77.112-.846.136-1.321.237a1.5,1.5,0,0,0-1.125,1.188l-.314,1.289c-.176.824.288.787.5.723a15.2,15.2,0,0,1,1.521-.454,11.474,11.474,0,0,1,2.408-.321,6.3,6.3,0,0,1,2.328.331,1.176,1.176,0,0,1,.774,1.164l-.039.361-.366.234c-1.47.088-2.524.222-3.787.407a11.74,11.74,0,0,0-3.255.895,5.052,5.052,0,0,0-2.209,1.745,4.687,4.687,0,0,0-.736,2.672,3.134,3.134,0,0,0,1.05,2.44,3.926,3.926,0,0,0,2.7.929,7.147,7.147,0,0,0,1.609-.151l1.239-.422,1.061-.583.96-.646.017.021-.088.415-.009.007,0,.007a.751.751,0,0,0,.682.96l0,.009h2.38l.039-.013a1.313,1.313,0,0,0,1.091-.968l1.876-8.085.1-.663.054-.62A2.7,2.7,0,0,0,46.777,22.192Zm-4.127,9.1-.417.533-1,.518a3.634,3.634,0,0,1-1.336.29,2.987,2.987,0,0,1-1.459-.28l-.5-.959a2.005,2.005,0,0,1,.366-1.256,2.629,2.629,0,0,1,1.1-.738,9.53,9.53,0,0,1,1.689-.379c.583-.073,1.738-.209,1.887-.211l.181.312C43.133,29.3,42.8,30.671,42.649,31.3Z" transform="translate(-33.475 -21.372)" fill="#fff"/></g><g transform="translate(46.587 20.022)"><path d="M41.816,21.83A3.969,3.969,0,0,0,40.4,20.313a6.3,6.3,0,0,0-2.229-.818,17.637,17.637,0,0,0-3.018-.235l-5.364,0a1.333,1.333,0,0,0-1.224.975L24.961,35.944a.76.76,0,0,0,.774.973l2.569,0a1.33,1.33,0,0,0,1.233-.972l.869-3.814a1.33,1.33,0,0,1,1.233-.973h.734A12.212,12.212,0,0,0,39.7,29.229a6.072,6.072,0,0,0,2.608-5.1A5,5,0,0,0,41.816,21.83Zm-5.532,5.136a5.462,5.462,0,0,1-3.236.841h-.639a.768.768,0,0,1-.785-.977L32.4,23.5a1.3,1.3,0,0,1,1.226-.973l.831-.006a4.153,4.153,0,0,1,2.231.5,1.71,1.71,0,0,1,.746,1.528A2.816,2.816,0,0,1,36.283,26.966Z" transform="translate(-24.934 -19.259)" fill="#fff"/></g><g transform="translate(77.719 20.162)"><path d="M49.343,20.3a.75.75,0,0,0-.77-.964h-2.3a1.3,1.3,0,0,0-1.1.779l-.127.2-.116.508-3.212,14.6-.1.448,0,.011a.727.727,0,0,0,.645.912l.039.054h2.386a1.3,1.3,0,0,0,1.106-.792l.123-.187L49.351,20.3Z" transform="translate(-41.595 -19.334)" fill="#fff"/></g><g transform="translate(31.564 24.156)"><path d="M32.014,21.472c-.607.007-3.075,0-3.075,0a2.224,2.224,0,0,0-1.614.979s-3.673,6.3-4.03,6.938l-.426-.006-1.143-6.889a1.413,1.413,0,0,0-1.4-1.005l-2.3,0a.758.758,0,0,0-.768.979S19.006,32.4,19.355,34.74c.163,1.289-.021,1.519-.021,1.519l-2.272,3.957c-.336.538-.155.977.4.977l2.657,0a2.147,2.147,0,0,0,1.609-.975l10.22-17.287S32.928,21.452,32.014,21.472Z" transform="translate(-16.893 -21.472)" fill="#fff"/></g></g></svg>