<svg xmlns="http://www.w3.org/2000/svg" width="81.517" height="25.094" viewBox="0 0 81.517 25.094"><g transform="translate(0 -16.554)"><g transform="translate(28.497 16.972)"><path d="M20.865,16.8,16.722,41.111h6.626L27.494,16.8Z" transform="translate(-16.722 -16.799)" fill="#fff"/></g><g transform="translate(6.581 16.994)"><path d="M20.222,16.817,13.733,33.4l-.692-2.5c-1.28-3.016-4.913-7.348-9.179-10.078L9.8,41.09l7.011-.012L27.241,16.812Z" transform="translate(-3.862 -16.812)" fill="#fff"/></g><g transform="translate(0 16.764)"><path d="M13.245,18.652c-.385-1.481-1.5-1.922-2.887-1.975H.085L0,17.161C7.994,19.1,13.284,23.773,15.479,29.392Z" transform="translate(0 -16.677)" fill="#fff"/></g><g transform="translate(39.269 16.554)"><path d="M36.472,21.632a12.232,12.232,0,0,1,4.959.93l.6.281.9-5.269a17.1,17.1,0,0,0-5.936-1.021c-6.547,0-11.162,3.3-11.2,8.023-.043,3.492,3.287,5.441,5.8,6.605,2.582,1.193,3.448,1.951,3.436,3.016-.02,1.627-2.059,2.374-3.962,2.374A13.908,13.908,0,0,1,24.829,35.3l-.854-.389-.932,5.441a20.985,20.985,0,0,0,7.382,1.3c6.965,0,11.491-3.258,11.539-8.308.029-2.762-1.738-4.87-5.568-6.6-2.318-1.128-3.736-1.878-3.722-3.016C32.675,22.713,33.878,21.632,36.472,21.632Z" transform="translate(-23.043 -16.554)" fill="#fff"/></g><g transform="translate(57.727 16.999)"><path d="M52.3,16.815H47.184a3.3,3.3,0,0,0-3.471,2.018l-9.838,22.28h6.958s1.135-3,1.392-3.652c.762,0,7.522.01,8.485.01.2.849.808,3.642.808,3.642h6.147Zm-8.171,15.67c.545-1.4,2.64-6.794,2.64-6.794-.036.066.54-1.406.883-2.321l.446,2.1,1.535,7.019Z" transform="translate(-33.874 -16.815)" fill="#fff"/></g></g></svg>